<?xml version="1.0" standalone="no"?>
<!DOCTYPE svg PUBLIC "-//W3C//DTD SVG 20010904//EN"
 "http://www.w3.org/TR/2001/REC-SVG-20010904/DTD/svg10.dtd">
<svg version="1.0" xmlns="http://www.w3.org/2000/svg"
 width="357.000000pt" height="86.000000pt" viewBox="0 0 357.000000 86.000000"
 preserveAspectRatio="xMidYMid meet">
<metadata>
Created by potrace 1.16, written by Peter Selinger 2001-2019
</metadata>
<g transform="translate(0.000000,86.000000) scale(0.100000,-0.100000)"
fill="#000000" stroke="none">
<path d="M387 719 c-99 -23 -180 -89 -221 -178 -30 -66 -29 -178 3 -249 30
-67 104 -135 174 -159 82 -28 196 -24 274 11 34 16 72 39 85 53 l23 25 -53 49
-53 49 -39 -31 c-81 -65 -193 -44 -245 44 -63 109 0 236 127 253 47 7 92 -9
134 -48 21 -19 21 -18 73 28 l52 47 -28 29 c-66 70 -197 103 -306 77z"/>
<path d="M1690 715 c-90 -25 -159 -79 -198 -155 -32 -61 -34 -70 -30 -150 2
-58 10 -98 23 -125 63 -129 233 -200 385 -161 90 23 148 61 194 129 38 54 40
62 44 147 4 86 3 94 -28 156 -35 72 -92 122 -170 149 -67 23 -156 27 -220 10z
m140 -135 c20 -5 51 -26 70 -45 30 -31 35 -43 38 -99 5 -82 -15 -128 -73 -161
-53 -31 -107 -32 -159 -2 -57 33 -78 77 -74 159 3 61 7 71 38 103 48 49 96 63
160 45z"/>
<path d="M1278 712 l-78 -3 0 -50 c0 -49 3 -55 76 -143 42 -50 79 -92 83 -94
6 -2 5 289 -1 292 -2 0 -38 0 -80 -2z"/>
<path d="M2209 713 c0 -2 0 -31 -1 -65 l0 -63 170 -5 c186 -5 198 -9 246 -73
29 -39 29 -135 0 -174 -43 -57 -79 -73 -170 -73 l-84 0 0 75 0 75 -75 0 c-41
0 -78 0 -81 0 -3 0 -5 -63 -5 -141 l0 -141 186 2 c161 1 193 3 238 21 228 89
250 401 36 518 l-64 36 -198 5 c-108 3 -197 4 -198 3z"/>
<path d="M2909 713 c0 -2 0 -30 -1 -63 l0 -61 233 0 234 0 0 61 0 61 -233 2
c-127 1 -232 1 -233 0z"/>
<path d="M800 674 c0 -32 23 -63 212 -290 l211 -254 64 0 c34 0 66 -1 70 -2 5
-2 6 15 5 36 -4 41 -30 76 -317 424 l-100 121 -72 0 -73 1 0 -36z"/>
<path d="M2907 483 c-1 -1 0 -29 1 -62 l4 -61 234 0 235 0 -3 60 -3 61 -233 2
c-129 1 -234 1 -235 0z"/>
<path d="M800 275 l0 -145 75 0 c41 0 78 -1 82 -2 4 -2 6 21 4 51 -2 50 -8 60
-77 147 -41 52 -77 94 -79 94 -3 0 -5 -65 -5 -145z"/>
<path d="M2910 195 c0 -30 0 -57 0 -60 0 -3 105 -6 233 -6 l232 0 3 61 3 60
-236 0 -235 0 0 -55z"/>
</g>
</svg>
